<?xml version="1.0" encoding="utf-8"?>
<!-- Generator: Adobe Illustrator 21.0.0, SVG Export Plug-In . SVG Version: 6.00 Build 0)  -->
<svg version="1.1" xmlns="http://www.w3.org/2000/svg" xmlns:xlink="http://www.w3.org/1999/xlink" x="0px" y="0px"
	 viewBox="0 0 254 92.5" style="enable-background:new 0 0 254 92.5;" xml:space="preserve">
<style type="text/css">
	.st0{opacity:0.33;fill:#D6D6D6;stroke:#272525;stroke-width:0.55;stroke-miterlimit:10;}
	.st1{opacity:0.33;fill:#808080;stroke:#272525;stroke-width:0.55;stroke-miterlimit:10;}
	.st2{stroke:#272525;stroke-width:0.55;stroke-miterlimit:10;}
	.st3{opacity:0.33;stroke:#272525;stroke-width:0.4135;stroke-miterlimit:10;}
	.st4{fill:#D6D6D6;stroke:#272525;stroke-width:0.55;stroke-miterlimit:10;}
	.st5{opacity:0.56;fill:#808080;stroke:#272525;stroke-width:0.55;stroke-miterlimit:10;}
	.st6{fill:#808080;stroke:#272525;stroke-width:0.55;stroke-miterlimit:10;}
	.st7{stroke:#272525;stroke-width:0.4135;stroke-miterlimit:10;}
	.st8{fill:none;stroke:#272525;stroke-width:1.1;stroke-miterlimit:10;}
	.st9{fill:#272525;}
	.st10{font-family:'GillSans';}
	.st11{font-size:8.8px;}
</style>
<g id="Layer_2">
	<path class="st0" d="M162.3,78.3c-36.6-10.5-89.6-26-97.6-29.7c-11.6-5.4-9.9-17.2-2.9-16.5c7,0.7,14.7,2.1,26.6,6.3
		c7.4,2.6,47.1,21.1,76.2,34.7"/>
	<path class="st1" d="M164.6,73.2c17.8,8.3,31.6,14.9,31.6,14.9c-4.2-1.2-17.4-4.9-33.9-9.7"/>
	<ellipse transform="matrix(0.2756 -0.9613 0.9613 0.2756 18.6423 122.3792)" class="st2" cx="90.5" cy="48.8" rx="3.3" ry="3.3"/>
	<ellipse transform="matrix(0.2756 -0.9613 0.9613 0.2756 45.462 211.8825)" class="st3" cx="163.3" cy="75.8" rx="2.5" ry="2.5"/>
</g>
<g id="Layer_3">
	<path class="st0" d="M162.8,20.2C129.2,38.1,80.4,63.8,72,66.7c-12.1,4.1-19.1-5.5-13.6-9.9s12-8.7,23.5-13.9
		c7.2-3.2,48.5-17.6,78.9-28"/>
	<path class="st1" d="M160.9,14.9C179.5,8.6,194,3.6,194,3.6c-3.8,2-15.9,8.5-31.2,16.6"/>
	<ellipse transform="matrix(0.8829 -0.4695 0.4695 0.8829 -12.3307 48.3064)" class="st2" cx="90.7" cy="48.9" rx="3.3" ry="3.3"/>
	<ellipse transform="matrix(0.8829 -0.4695 0.4695 0.8829 10.6282 78.0322)" class="st3" cx="161.8" cy="17.7" rx="2.5" ry="2.5"/>
</g>
<g id="Layer_1">
	<path class="st4" d="M167.8,57.4c-38.1,0-93.3-0.3-102-1.7c-12.6-2-14.3-13.9-7.3-15.1c6.9-1.2,14.7-2,27.3-1.2
		c7.8,0.5,51.1,7.3,82.8,12.4"/>
	<path class="st5" d="M169.1,51.9c17.8,8.3,31.6,14.9,31.6,14.9c-4.2-1.2-15.9-4.5-32.5-9.3"/>
	<path class="st5" d="M168.1,51.7c18.9-5.4,32.8-9.3,32.8-9.3c-3.9,1.8-16.3,7.7-32,15"/>
	<path class="st6" d="M168.6,51.8c19.4,3.1,34.5,5.6,34.5,5.6c-4.3,0-18.1,0-35.3,0"/>
	<circle class="st2" cx="90.7" cy="48.8" r="3.3"/>
	<circle class="st7" cx="168.1" cy="54.7" r="2.5"/>
	<g>
		<g>
			<path class="st8" d="M42.6,29.3C40.1,35.3,38.7,42,38.7,49c0,6.4,1.2,12.5,3.3,18.1"/>
			<g>
				<polygon class="st9" points="37.1,31.1 37.6,32.1 42.5,29.7 44.5,34.7 45.5,34.3 43,28.2 				"/>
			</g>
			<g>
				<polygon class="st9" points="36.5,65.1 37.1,64.1 41.8,66.6 44,61.7 45,62.1 42.4,68.2 				"/>
			</g>
		</g>
	</g>
	<g>
		<g>
			<path class="st8" d="M208.7,38.8c1.9,4.9,3,10.3,3,15.9c0,4.8-0.8,9.5-2.2,13.8"/>
			<g>
				<polygon class="st9" points="205.7,43.8 206.7,44.2 208.8,39.2 213.6,41.7 214.1,40.7 208.2,37.7 				"/>
			</g>
			<g>
				<polygon class="st9" points="206.2,63.7 207.2,63.2 209.5,68.1 214.2,65.4 214.8,66.3 209,69.6 				"/>
			</g>
		</g>
	</g>
	<text transform="matrix(1 0 0 1 221.0127 44.8291)"><tspan x="0" y="0" class="st10 st11">elevator</tspan><tspan x="0" y="10.6" class="st10 st11">pitch</tspan><tspan x="0" y="21.1" class="st10 st11">control</tspan></text>
	<text transform="matrix(1 0 0 1 3.4873 40.7041)"><tspan x="0" y="0" class="st10 st11">stabilizer</tspan><tspan x="0" y="10.6" class="st10 st11">pitch</tspan><tspan x="0" y="21.1" class="st10 st11">trim</tspan></text>
</g>
</svg>
